<svg xmlns="http://www.w3.org/2000/svg" viewBox="0 0 1353.8 411.08">
    <g>
        <path d="M218.248 328.007c-17.175 16.348-40.379 26.414-65.904 26.414-52.761 0-95.685-42.924-95.685-95.682 0-52.762 42.924-95.684 95.685-95.684 52.759 0 95.684 42.922 95.684 95.684h56.659c0-84.003-68.342-152.344-152.343-152.344C68.341 106.395.001 174.736.001 258.739c0 84 68.34 152.341 152.343 152.341 41.924 0 79.945-17.027 107.519-44.525l-41.615-38.548M366.397.001h58.39v400.705h-58.39V0M677.223 264.468v-8.013l-76.708 13.16c-35.49 6.3-54.954 21.753-54.954 48.084 0 25.759 18.888 42.365 47.512 42.365 50.95 0 84.15-41.213 84.15-95.596zM694.4 400.706c-6.87-8.011-14.883-23.465-16.03-49.807-18.318 37.789-52.666 57.818-94.45 57.818-57.248 0-96.75-36.065-96.75-87.584 0-57.237 45.802-84.72 100.18-93.302l89.873-14.312V201.5c0-32.63-20.606-49.237-59.531-49.237-40.072 0-58.96 17.177-58.96 37.207 0 2.865 0 4.006 1.141 8.594l-52.089 17.748c-3.436-8.024-4.577-15.465-4.577-22.906 0-44.078 42.924-84.15 114.485-84.15 77.279 0 117.92 34.354 117.92 96.179v124.792c0 32.63 4.577 49.796 17.177 70.978H694.4M938.23 400.706h-56.095L767.644 116.769h62.97l79.569 211.235 79.566-211.235h62.966L938.23 400.706M1215.273 155.699c39.495 0 78.42 24.618 82.995 70.98h-169.439c10.878-41.214 44.079-70.98 86.444-70.98zm69.782 168.165c-15.192 20.42-35.903 33.905-69.782 33.905-50.378 0-84.149-36.065-86.444-86.432H1353.8v-20.61c0-83.01-54.955-141.971-137.385-141.971-80.715 0-145.975 61.256-145.975 149.981 0 88.726 65.26 149.98 143.11 149.98 48.967 0 84.543-16.746 110.365-48.856l-38.86-35.997"/>
    </g>
</svg>
