<svg width="214" height="152" viewBox="0 0 214 152" fill="none" xmlns="http://www.w3.org/2000/svg">
<path d="M23.2227 121.07L23.1953 151.061L49.7866 136.036L23.2227 121.07Z" fill="#F89791"/>
<path d="M71.3714 139.291C110.789 139.291 142.743 108.11 142.743 69.6457C142.743 31.1815 110.789 0 71.3714 0C31.9541 0 0 31.1815 0 69.6457C0 108.11 31.9541 139.291 71.3714 139.291Z" fill="#F89791"/>
<path d="M190.615 121.012L190.642 151.003L164.049 135.979L190.615 121.012Z" fill="#005550"/>
<path d="M142.628 139.291C182.046 139.291 214 108.11 214 69.6457C214 31.1815 182.046 0 142.628 0C103.211 0 71.2568 31.1815 71.2568 69.6457C71.2568 108.11 103.211 139.291 142.628 139.291Z" fill="#005550"/>
<path d="M144 69.5011C144 43.6433 129.112 21.0823 106.999 9C84.8858 21.0823 70 43.6433 70 69.5011C70 95.3589 84.8881 117.918 106.999 130C129.112 117.915 144 95.3589 144 69.5011Z" fill="#FFBE2D"/>
</svg>
