<svg width="214" height="152" viewBox="0 0 214 152" fill="none" xmlns="http://www.w3.org/2000/svg">
<path d="M169.941 73.0117H107V115.812H169.941V73.0117Z" fill="#FFBE2D"/>
<path d="M83.934 115.812H46.9832C45.3688 115.812 44.0586 114.502 44.0586 112.887V75.9363C44.0586 74.3219 45.3688 73.0117 46.9832 73.0117H83.934C85.5484 73.0117 86.8586 74.3219 86.8586 75.9363V112.887C86.8586 114.503 85.5484 115.812 83.934 115.812Z" fill="#FA9691"/>
<path d="M214 0H171.2V42.8H214V0Z" fill="#002850"/>
<path d="M128.4 42.8C140.219 42.8 149.8 33.2189 149.8 21.4C149.8 9.58111 140.219 0 128.4 0C116.581 0 107 9.58111 107 21.4C107 33.2189 116.581 42.8 128.4 42.8Z" fill="#0064C8"/>
<path d="M88.1176 0H0V42.8H88.1176V0Z" fill="#005550"/>
<path d="M152.317 105.738L164.459 151.056L197.635 117.88L152.317 105.738Z" fill="#FA9691"/>
</svg>
