<svg width="150" height="71" viewBox="0 0 150 71" xmlns="http://www.w3.org/2000/svg">
  <g clip-path="url(#clip0_0_1)">
    <path d="M24.1816 35.9062C22.2786 37.6958 19.7076 38.7977 16.8795 38.7977C11.0336 38.7977 6.27766 34.0989 6.27766 28.3236C6.27766 22.5478 11.0336 17.8493 16.8795 17.8493C22.7251 17.8493 27.4812 22.5478 27.4812 28.3236H33.759C33.759 19.128 26.1867 11.6468 16.8795 11.6468C7.57202 11.6468 0 19.128 0 28.3236C0 37.5189 7.57202 45 16.8795 45C21.5246 45 25.7373 43.1361 28.7925 40.1259L24.1816 35.9062ZM40.5964 0.000109468H47.066V43.8644H40.5964V0V0.000109468ZM75.0357 28.9507V28.0735L66.5365 29.5141C62.6042 30.2038 60.4476 31.8954 60.4476 34.7778C60.4476 37.5976 62.5404 39.4154 65.7119 39.4154C71.3571 39.4154 75.0357 34.9039 75.0357 28.9507ZM76.9389 43.8644C76.1777 42.9874 75.2898 41.2957 75.1628 38.4121C73.1331 42.5488 69.3274 44.7413 64.6978 44.7413C58.3547 44.7413 53.978 40.7934 53.978 35.1537C53.978 28.8881 59.0528 25.8796 65.0778 24.9401L75.0357 23.3734V22.0578C75.0357 18.4858 72.7525 16.6679 68.4397 16.6679C63.9997 16.6679 61.907 18.5482 61.907 20.7409C61.907 21.0545 61.907 21.1794 62.0334 21.6816L56.262 23.6245C55.8813 22.7461 55.7548 21.9315 55.7548 21.117C55.7548 16.2919 60.5108 11.9053 68.4397 11.9053C77.0021 11.9053 81.5051 15.6659 81.5051 22.4338V36.0945C81.5051 39.6664 82.0123 41.5455 83.4083 43.8643H76.9389V43.8644ZM103.955 43.8644H97.7398L85.0543 12.7824H92.0313L100.847 35.9059L109.663 12.7824H116.64L103.955 43.8644ZM134.651 17.044C139.027 17.044 143.34 19.7389 143.847 24.814H125.073C126.279 20.3024 129.957 17.044 134.651 17.044ZM142.383 35.4527C140.7 37.688 138.405 39.1642 134.651 39.1642C129.069 39.1642 125.328 35.2162 125.073 29.7027H150V27.4465C150 18.3596 143.911 11.9053 134.778 11.9053C125.835 11.9053 118.604 18.6108 118.604 28.3234C118.604 38.036 125.835 44.7413 134.46 44.7413C139.886 44.7413 143.828 42.9082 146.689 39.3932L142.383 35.4527Z"/>
  </g>
  <path d="M4.27557 69.1591C3.53977 69.1591 2.90507 68.9967 2.37145 68.6719C1.84115 68.3438 1.43182 67.8864 1.14347 67.2997C0.858428 66.7098 0.715909 66.0237 0.715909 65.2415C0.715909 64.4593 0.858428 63.7699 1.14347 63.1733C1.43182 62.5734 1.83286 62.1061 2.34659 61.7713C2.86364 61.4332 3.46686 61.2642 4.15625 61.2642C4.55398 61.2642 4.94673 61.3305 5.33452 61.4631C5.7223 61.5956 6.07528 61.8111 6.39347 62.1094C6.71165 62.4044 6.9652 62.7955 7.15412 63.2827C7.34304 63.7699 7.4375 64.3698 7.4375 65.0824V65.5795H1.55114V64.5653H6.24432C6.24432 64.1345 6.15814 63.75 5.9858 63.4119C5.81676 63.0739 5.57481 62.8071 5.25994 62.6115C4.94839 62.416 4.58049 62.3182 4.15625 62.3182C3.68892 62.3182 3.28456 62.4342 2.94318 62.6662C2.60511 62.8949 2.34493 63.1932 2.16264 63.5611C1.98035 63.929 1.8892 64.3234 1.8892 64.7443V65.4205C1.8892 65.9972 1.98864 66.486 2.1875 66.8871C2.38968 67.2848 2.66974 67.5881 3.0277 67.7969C3.38565 68.0024 3.80161 68.1051 4.27557 68.1051C4.58381 68.1051 4.86222 68.062 5.1108 67.9759C5.36269 67.8864 5.57978 67.7538 5.76207 67.5781C5.94437 67.3991 6.08523 67.1771 6.18466 66.9119L7.31818 67.2301C7.19886 67.6146 6.99834 67.9527 6.71662 68.2443C6.4349 68.5327 6.08688 68.758 5.67259 68.9205C5.25829 69.0795 4.79261 69.1591 4.27557 69.1591ZM10.4166 64.4062V69H9.2433V61.3636H10.3768V62.5568H10.4763C10.6552 62.169 10.927 61.8575 11.2916 61.6222C11.6562 61.3835 12.1268 61.2642 12.7035 61.2642C13.2206 61.2642 13.673 61.3703 14.0608 61.5824C14.4486 61.7912 14.7502 62.1094 14.9656 62.5369C15.181 62.9612 15.2888 63.4981 15.2888 64.1477V69H14.1155V64.2273C14.1155 63.6274 13.9597 63.16 13.6481 62.8253C13.3366 62.4872 12.909 62.3182 12.3655 62.3182C11.9909 62.3182 11.6562 62.3994 11.3612 62.5618C11.0695 62.7242 10.8392 62.9612 10.6701 63.2727C10.5011 63.5843 10.4166 63.9621 10.4166 64.4062ZM24.2958 69.1591C23.6594 69.1591 23.0976 68.9983 22.6104 68.6768C22.1232 68.352 21.742 67.8946 21.4669 67.3047C21.1918 66.7114 21.0543 66.0104 21.0543 65.2017C21.0543 64.3996 21.1918 63.7036 21.4669 63.1136C21.742 62.5237 22.1248 62.0679 22.6154 61.7464C23.1059 61.425 23.6727 61.2642 24.3157 61.2642C24.8128 61.2642 25.2056 61.3471 25.4939 61.5128C25.7856 61.6752 26.0077 61.8608 26.1601 62.0696C26.3159 62.2751 26.4369 62.4441 26.523 62.5767H26.6225V58.8182H27.7958V69H26.6623V67.8267H26.523C26.4369 67.9659 26.3142 68.1416 26.1552 68.3537C25.9961 68.5625 25.769 68.7498 25.474 68.9155C25.1791 69.0779 24.7863 69.1591 24.2958 69.1591ZM24.4549 68.1051C24.9255 68.1051 25.3232 67.9825 25.648 67.7372C25.9729 67.4886 26.2198 67.1456 26.3888 66.7081C26.5579 66.2673 26.6424 65.7585 26.6424 65.1818C26.6424 64.6117 26.5595 64.1129 26.3938 63.6854C26.2281 63.2545 25.9828 62.9197 25.658 62.6811C25.3332 62.4392 24.9321 62.3182 24.4549 62.3182C23.9577 62.3182 23.5434 62.4458 23.212 62.701C22.8838 62.9529 22.6369 63.2959 22.4712 63.7301C22.3088 64.161 22.2276 64.6449 22.2276 65.1818C22.2276 65.7254 22.3105 66.2192 22.4762 66.6634C22.6452 67.1042 22.8938 67.4555 23.2219 67.7173C23.5534 67.9759 23.9643 68.1051 24.4549 68.1051ZM33.3303 69.1591C32.5945 69.1591 31.9598 68.9967 31.4262 68.6719C30.8958 68.3438 30.4865 67.8864 30.1982 67.2997C29.9131 66.7098 29.7706 66.0237 29.7706 65.2415C29.7706 64.4593 29.9131 63.7699 30.1982 63.1733C30.4865 62.5734 30.8876 62.1061 31.4013 61.7713C31.9183 61.4332 32.5216 61.2642 33.211 61.2642C33.6087 61.2642 34.0014 61.3305 34.3892 61.4631C34.777 61.5956 35.13 61.8111 35.4482 62.1094C35.7664 62.4044 36.0199 62.7955 36.2088 63.2827C36.3977 63.7699 36.4922 64.3698 36.4922 65.0824V65.5795H30.6058V64.5653H35.299C35.299 64.1345 35.2128 63.75 35.0405 63.4119C34.8715 63.0739 34.6295 62.8071 34.3146 62.6115C34.0031 62.416 33.6352 62.3182 33.211 62.3182C32.7436 62.3182 32.3393 62.4342 31.9979 62.6662C31.6598 62.8949 31.3996 63.1932 31.2173 63.5611C31.0351 63.929 30.9439 64.3234 30.9439 64.7443V65.4205C30.9439 65.9972 31.0433 66.486 31.2422 66.8871C31.4444 67.2848 31.7244 67.5881 32.0824 67.7969C32.4404 68.0024 32.8563 68.1051 33.3303 68.1051C33.6385 68.1051 33.9169 68.062 34.1655 67.9759C34.4174 67.8864 34.6345 67.7538 34.8168 67.5781C34.9991 67.3991 35.1399 67.1771 35.2394 66.9119L36.3729 67.2301C36.2536 67.6146 36.053 67.9527 35.7713 68.2443C35.4896 68.5327 35.1416 68.758 34.7273 68.9205C34.313 69.0795 33.8473 69.1591 33.3303 69.1591ZM39.4713 58.8182V69H38.298V58.8182H39.4713ZM47.8469 69.179C47.363 69.179 46.9239 69.0878 46.5295 68.9055C46.135 68.7199 45.8218 68.4531 45.5898 68.1051C45.3578 67.7538 45.2418 67.3295 45.2418 66.8324C45.2418 66.3949 45.328 66.0402 45.5003 65.7685C45.6727 65.4934 45.903 65.2779 46.1914 65.1222C46.4797 64.9664 46.7979 64.8504 47.1459 64.7741C47.4973 64.6946 47.8502 64.6316 48.2049 64.5852C48.6689 64.5256 49.0451 64.4808 49.3334 64.451C49.6251 64.4179 49.8372 64.3632 49.9698 64.2869C50.1057 64.2107 50.1736 64.0781 50.1736 63.8892V63.8494C50.1736 63.3589 50.0394 62.9777 49.7709 62.706C49.5058 62.4342 49.1031 62.2983 48.5628 62.2983C48.0027 62.2983 47.5635 62.4209 47.2454 62.6662C46.9272 62.9115 46.7035 63.1733 46.5742 63.4517L45.4606 63.054C45.6594 62.59 45.9246 62.2287 46.256 61.9702C46.5908 61.7083 46.9554 61.526 47.3498 61.4233C47.7475 61.3172 48.1386 61.2642 48.5231 61.2642C48.7683 61.2642 49.0501 61.294 49.3682 61.3537C49.6897 61.41 49.9996 61.5277 50.2979 61.7067C50.5995 61.8857 50.8498 62.1558 51.0486 62.517C51.2475 62.8783 51.3469 63.3622 51.3469 63.9688V69H50.1736V67.9659H50.114C50.0344 68.1316 49.9019 68.3089 49.7162 68.4979C49.5306 68.6868 49.2837 68.8475 48.9755 68.9801C48.6672 69.1127 48.2911 69.179 47.8469 69.179ZM48.0259 68.125C48.4899 68.125 48.881 68.0339 49.1992 67.8516C49.5207 67.6693 49.7626 67.4339 49.9251 67.1456C50.0908 66.8572 50.1736 66.554 50.1736 66.2358V65.1619C50.1239 65.2216 50.0145 65.2763 49.8455 65.326C49.6798 65.3724 49.4876 65.4138 49.2688 65.4503C49.0534 65.4834 48.8429 65.5133 48.6374 65.5398C48.4352 65.563 48.2712 65.5829 48.1452 65.5994C47.8403 65.6392 47.5553 65.7038 47.2901 65.7933C47.0283 65.8795 46.8162 66.0104 46.6537 66.1861C46.4947 66.3584 46.4151 66.5937 46.4151 66.892C46.4151 67.2997 46.5659 67.608 46.8675 67.8168C47.1724 68.0223 47.5586 68.125 48.0259 68.125ZM59.4803 61.3636L56.6565 69H55.4633L52.6394 61.3636H53.9121L56.0201 67.4489H56.0996L58.2076 61.3636H59.4803Z"/>
  <path d="M91.6331 69.4686L92.2246 68.9866L85.9375 60.8622L85.3291 61.3441L91.6331 69.4686ZM91.6331 69.4686L92.2246 68.9866L85.9375 60.8622L85.3291 61.3441L91.6331 69.4686Z"/>
  <path fill-rule="evenodd" clip-rule="evenodd" d="M71.5372 64.3389C73.4301 64.3389 75.0019 62.721 75.0019 60.7759C75.0019 58.8309 73.4301 57.2473 71.5372 57.2473C69.6105 57.2473 68.0557 58.8309 68.0557 60.7759C68.0557 62.7382 69.6105 64.3389 71.5372 64.3389ZM68.85 60.7587C68.85 62.2906 70.0669 63.5644 71.5372 63.5644C73.0076 63.5644 74.2075 62.2906 74.2075 60.7587C74.2075 59.2612 72.9907 58.0219 71.5372 58.0219C70.0331 58.0219 68.85 59.2268 68.85 60.7587Z"/>
  <path fill-rule="evenodd" clip-rule="evenodd" d="M80.1691 64.3389C82.0619 64.3389 83.6337 62.721 83.6337 60.7759C83.6337 58.8309 82.0619 57.2473 80.1691 57.2473C78.2424 57.2473 76.6875 58.8309 76.6875 60.7759C76.6875 62.7382 78.2424 64.3389 80.1691 64.3389ZM77.4818 60.7587C77.4818 62.2906 78.6987 63.5644 80.1691 63.5644C81.6394 63.5644 82.8393 62.2906 82.8393 60.7587C82.8393 59.2612 81.6225 58.0219 80.1691 58.0219C78.6649 58.0219 77.4818 59.2268 77.4818 60.7587Z"/>
  <path d="M71.2502 69.4684L74.5121 64.9242L73.8529 64.4078L70.5742 68.9176L71.2502 69.4684Z"/>
  <path d="M71.2502 69.4684L74.5121 64.9242L73.8529 64.4078L70.5742 68.9176L71.2502 69.4684Z"/>
  <path d="M79.882 69.4684L83.1439 64.9242L82.4848 64.4078L79.2061 68.9176L79.882 69.4684Z"/>
  <path d="M79.882 69.4684L83.1439 64.9242L82.4848 64.4078L79.2061 68.9176L79.882 69.4684Z"/>
  <path d="M91.9876 61.3441L89.6215 64.4253L89.0469 63.8917L91.3792 60.8622L91.9876 61.3441Z"/>
  <path d="M85.6833 69.4683L88.3029 66.1119L87.7114 65.5955L85.0918 68.9864L85.6833 69.4683Z"/>
  <defs>
    <clipPath id="clip0_0_1">
      <rect width="150" height="45"/>
    </clipPath>
  </defs>
</svg>
