<svg width="250" height="251" viewBox="0 0 250 251" fill="none" xmlns="http://www.w3.org/2000/svg">
<g clip-path="url(#clip0_4141_346)">
<rect width="250" height="250" transform="translate(0 0.547363)" fill="#FAD786"/>
<rect width="250" height="250" transform="translate(0 0.547363)" fill="#B4D7E1"/>
<path d="M200.552 191.508C199.444 173.578 197.622 155.705 195.095 137.916C194.391 132.947 193.583 127.847 191.057 123.499C189.657 121.085 187.6 118.953 185.186 117.582C183.834 118.887 182.378 120.164 180.8 121.414C169.802 130.092 154.887 135.098 139.963 135.117C117.515 135.155 98.4298 124.034 87.7508 106.236C87.6475 106.123 87.5441 106.01 87.4408 105.907C83.2894 101.352 78.4712 96.5334 72.3099 96.5334C54.5678 96.5334 48.181 114.435 50.4352 137.071L59.1231 214.332C60.1468 220.944 62.354 227.669 67.0878 232.393C70.0745 235.37 73.8878 237.39 77.8137 238.939C92.7287 244.81 109.269 243.664 125.301 243.664C139.577 243.664 151.534 225.311 161.368 225.311C164.655 225.311 193.733 226.729 196.175 224.532C197.049 223.752 197.537 222.634 197.96 221.535C201.529 212.077 201.181 201.624 200.552 191.508Z" fill="#005550"/>
<path d="M139.953 135.126C108.217 135.183 83.1955 112.951 79.1474 81.0456C76.2546 58.2224 81.3734 37.8317 98.4862 21.6488C121.244 0.121662 164.035 -1.47502 185.233 27.0024C188.446 31.3229 190.991 36.019 192.55 41.1378C194.137 46.3599 194.964 51.6854 199.19 55.9119C201.783 58.5042 199.218 63.4633 194.748 64.1302C191.874 64.5622 191.846 65.3511 192.512 67.5583C193.499 70.8456 194.259 74.2081 195.17 77.5142C200.176 95.6225 195.537 109.786 180.791 121.423C169.802 130.102 154.887 135.108 139.953 135.126Z" fill="#FFD678"/>
<path d="M184.585 234.423C185.468 240.237 182.425 242.801 177.306 244.294C169.848 246.473 162.635 245.637 155.516 243.139C153.468 242.416 147.335 201.775 146.884 200.094C145.936 196.544 147.307 194.816 150.622 193.472C160.71 189.387 170.806 188.034 181.335 191.697C184.763 192.89 186.294 194.609 185.975 198.432C185.393 205.466 183.956 230.281 184.585 234.423Z" fill="#0064C8"/>
<path d="M153.515 197.061C161.79 193.219 170.093 192.261 179.579 195.886C179.823 195.98 179.832 196.347 179.588 196.441C170.374 200.31 161.959 199.944 153.562 197.605C153.299 197.549 153.271 197.173 153.515 197.061Z" fill="#002850"/>
<path d="M139.953 135.126C108.217 135.183 83.1955 112.951 79.1474 81.0456C76.2546 58.2224 81.3734 37.8317 98.4862 21.6488C121.244 0.121662 164.035 -1.47502 185.233 27.0024C188.446 31.3229 190.991 36.019 192.55 41.1378C194.137 46.3599 194.964 51.6854 199.19 55.9119C201.783 58.5042 199.218 63.4633 194.748 64.1302C191.874 64.5622 191.846 65.3511 192.512 67.5583C193.499 70.8456 194.259 74.2081 195.17 77.5142C200.176 95.6225 195.537 109.786 180.791 121.423C169.802 130.102 154.887 135.108 139.953 135.126Z" fill="#FA9691"/>
<path d="M183.138 86.4744C186.351 86.202 189.694 84.3705 189.253 82.3981C188.783 80.2755 187.215 80.6606 185.58 81.0644C180.894 82.2103 174.131 81.149 169.707 78.923C168.364 78.2468 166.908 77.9462 166.26 79.6556C165.49 81.7219 173.107 87.4418 183.138 86.4744Z" fill="#002850"/>
<path d="M162.889 40.8752C164.899 41.1006 169.53 43.5051 169.022 44.989C168.468 46.5857 167.294 46.1537 166.064 45.7029C162.542 44.4067 157.226 44.6322 153.6 45.9659C152.501 46.3697 151.402 46.4543 150.999 45.0924C150.585 43.6648 155.3 40.0111 162.889 40.8752Z" fill="#002850"/>
<path d="M145.964 216.689C148.378 214.971 174.949 208.03 176.592 210.331C177.428 211.505 183.759 224.354 171.53 235.361C159.949 245.796 137.84 243.57 135.097 239.522C133.125 236.62 142.724 219 145.964 216.689Z" fill="#FA9691"/>
</g>
<defs>
<clipPath id="clip0_4141_346">
<rect width="250" height="250" fill="white" transform="translate(0 0.547363)"/>
</clipPath>
</defs>
</svg>
