<svg width="250" height="251" viewBox="0 0 250 251" fill="none" xmlns="http://www.w3.org/2000/svg">
<rect width="250" height="250" transform="translate(0 0.547363)" fill="#FCC7C5"/>
<path d="M87.1826 142.081C87.2344 142.088 87.2715 142.081 87.3234 142.088C87.3011 142.059 87.2789 142.029 87.2566 141.999L87.1826 142.081Z" fill="#005550"/>
<path d="M142.273 106.628C138.652 109.849 129.559 117.231 118.867 119.8C110.292 121.244 102.54 121.252 96.9567 120.896C95.7572 120.822 70.6777 239.481 70.6777 239.481H132.21C132.21 239.481 138.326 245.642 146.39 245.546C155.742 245.435 160.681 243.272 164.065 234.602C170.448 215.231 175.386 171.174 175.386 146.953C175.379 127.886 143.324 113.151 142.273 106.628Z" fill="#005550"/>
<path d="M90.189 119.068C83.5323 115.936 78.2898 110.457 74.2469 103.815C73.3435 113.507 70.0854 128.679 65.4205 132.308C64.5986 132.944 64.606 134.033 65.3613 134.847C66.2054 135.758 81.6367 149.753 93.1657 140.319C96.831 134.907 98.6895 131.36 99.4448 124.947C99.6373 123.326 99.741 122.26 100 121.549C96.2016 121.149 92.8251 120.312 90.189 119.068Z" fill="#002850"/>
<path d="M140.866 59.4242C142.377 57.536 143.095 55.4849 146.657 58.5356C150.218 61.5863 147.715 69.9462 144.139 72.5081C142.88 73.4115 140.577 73.0857 139.829 72.1527C133.861 82.4081 134.817 93.9075 140.874 108.361C128.893 122.178 102.022 124.637 90.189 119.068C64.8282 107.14 59.956 61.068 63.7324 46.6068C70.5372 20.5796 107.471 14.8854 127.708 26.681C139.859 33.7598 139.904 55.5886 140.866 59.4242Z" fill="#FA9691"/>
<path d="M95.3129 106.881C93.6913 106.799 89.8706 105.096 90.2038 103.882C90.5667 102.578 91.5292 102.867 92.5362 103.171C95.424 104.037 99.6669 103.6 102.503 102.356C103.362 101.979 104.236 101.853 104.628 102.927C105.028 104.052 101.429 107.199 95.3129 106.881Z" fill="#002850"/>
<path d="M77.5422 78.854C76.076 78.817 72.5811 77.3656 72.8625 76.2624C73.1587 75.0776 74.0398 75.3146 74.9505 75.5663C77.5792 76.2846 81.4 75.7885 83.9323 74.6037C84.7024 74.2409 85.4873 74.115 85.8649 75.0702C86.2574 76.0773 83.0734 79.0021 77.5422 78.854Z" fill="#002850"/>
<path d="M101.725 75.8992C100.259 75.8621 96.7644 74.4108 97.0458 73.3076C97.342 72.1228 98.2231 72.3598 99.1339 72.6115C101.763 73.3298 105.583 72.8336 108.116 71.6489C108.886 71.2861 109.671 71.1602 110.048 72.1154C110.441 73.115 107.257 76.0473 101.725 75.8992Z" fill="#002850"/>
<path d="M192.106 132.226C186.923 133.211 183.502 130.812 180.925 126.65C179.489 124.333 178.393 121.874 177.512 119.29C173.143 106.428 171.766 93.063 171.07 79.6384C170.166 62.3339 167.449 45.5994 157.638 30.8272C149.219 18.1579 138.275 8.90955 122.799 6.0958C113.965 4.489 96.8457 6.36978 87.0346 12.3083C75.6685 19.1872 62.4143 37.6024 62.6068 56.5953C85.2945 54.3813 96.1349 48.3317 110.352 30.9531C113.839 38.3281 123.243 50.4346 140.859 59.4164C143.013 60.5123 143.088 55.4772 146.649 58.5279C150.211 61.586 147.708 69.9384 144.132 72.5004C142.873 73.4038 140.57 73.078 139.822 72.145C133.854 82.4004 134.543 92.5299 140.814 109.346C142.665 114.314 152.417 124.577 164.546 130.79C174.646 135.965 187.093 136.891 192.543 135.625C193.868 135.314 195.52 134.795 195.364 133.418C195.194 131.811 193.328 131.996 192.106 132.226Z" fill="#002850"/>
<path d="M86.8052 147.672C88.2417 144.333 89.7967 141.038 91.0777 137.639C91.8922 135.492 93.0251 135.581 94.8022 136.336C96.6904 137.143 96.757 138.194 95.8758 139.809C95.1724 141.104 90.863 152.226 90.2854 153.596C87.4124 153.64 87.0866 148.131 86.8052 147.672Z" fill="#0064C8"/>
<path d="M72.662 153.448C73.2174 151.708 83.7764 138.424 85.4498 138.957C86.3013 139.224 94.1873 143.229 92.225 153.203C90.3665 162.652 78.6154 169.745 75.7572 168.761C73.6987 168.065 71.9142 155.795 72.662 153.448Z" fill="#FA9691"/>
<path d="M85.1094 207.435L65.776 201.423C65.154 201.23 64.6875 200.719 64.5394 200.09L55.0466 158.313C54.7579 157.047 55.8538 155.892 57.1348 156.114L88.2045 161.564C89.1153 161.726 89.7595 162.534 89.7077 163.452L87.4641 205.791C87.4048 206.976 86.2423 207.791 85.1094 207.435Z" fill="#FFBE2D"/>
<path d="M77.8679 195.928C76.7868 193.84 74.3211 172.196 76.3204 171.167C77.3348 170.641 88.1306 167.117 95.402 177.957C102.296 188.22 98.0602 205.325 94.5801 207.028C92.0773 208.249 79.3192 198.734 77.8679 195.928Z" fill="#FA9691"/>
</svg>
