<svg width="250" height="251" viewBox="0 0 250 251" fill="none" xmlns="http://www.w3.org/2000/svg">
<g clip-path="url(#clip0_4141_354)">
<rect width="250" height="250" transform="translate(0 0.547363)" fill="#FAD786"/>
<rect width="250" height="250" transform="translate(0 0.547363)" fill="#FAD786"/>
<path d="M187.928 148.387C186.014 148.359 169.539 140.7 169.574 138.54C169.602 136.4 210.835 131.119 210.8 133.602C210.758 136.281 190.502 148.422 187.928 148.387Z" fill="#FA9691"/>
<path d="M43.3225 234.814C43.4207 220.352 43.9117 159.068 69.5603 143.813C82.2689 136.26 110.863 133.265 137.711 138.511C148 140.524 155.428 150.238 159.916 165.127C163.949 178.502 164.559 192.396 166.516 206.339C169.02 188.539 175.094 153.885 176.433 146.275C176.588 145.419 177.352 144.809 178.222 144.858L195.223 145.756C195.721 145.798 196.085 146.247 196.008 146.745C191.793 174.673 187.543 202.587 183.37 230.522C181.918 240.264 173.06 246.352 166.123 245.461C161.158 244.823 157.504 240.608 155 236.266C145.44 219.686 143.932 199.831 138.223 181.567C136.231 199.522 140.573 217.512 144.879 235.053" fill="#0064C8"/>
<path d="M186.869 70.1217C190.194 70.0797 191.155 68.8242 189.871 65.7593C188.146 61.6423 185.593 58.1285 181.216 56.3962C180.375 56.0665 179.344 55.8912 179.428 54.7199C179.512 53.4504 180.55 53.205 181.595 52.9244C186.806 51.5357 187.886 48.9758 185.214 44.2977C183.72 41.6817 181.707 39.4724 178.979 38.1468C176.23 36.8142 175.606 35.5869 177.955 33.0479C180.634 30.1513 179.8 28.2366 175.949 27.5844C174.82 27.395 173.628 27.402 172.485 27.5283C166.684 28.1805 166.684 28.2016 167.238 22.4434C167.365 21.1599 167.61 19.7011 166.362 18.9366C165.183 18.2142 163.9 18.8244 162.715 19.4416C160.59 20.5427 159.075 22.24 157.679 24.1197C156.725 25.4172 155.371 25.7889 153.927 25.1086C152.671 24.5194 153.134 23.4183 153.401 22.4153C154.018 20.0939 155.336 17.2393 152.882 15.7174C150.287 14.1113 148.232 16.7273 146.205 18.1862C146.099 18.2633 146.015 18.3615 145.91 18.4316C144.921 19.0769 144.311 20.7601 142.726 19.8273C141.407 19.0488 142.165 17.7724 142.235 16.6642C142.375 14.5461 143.189 12.1615 140.524 10.9201C137.978 9.73481 136.07 11.2848 134.261 12.7156C133.475 13.3328 132.872 14.2305 132.332 15.0932C131.694 16.1172 131.104 17.2183 129.674 16.6782C128.425 16.2013 128.706 15.0862 128.832 14.0341C129.106 11.8459 129.449 9.29997 127.177 8.16377C124.645 6.90133 122.527 8.71083 120.619 10.2889C120.03 10.7798 119.595 11.4601 118.999 11.9441C117.477 13.1855 116.523 12.8418 115.983 10.9061C115.401 8.80201 115.59 5.2952 112.862 5.56172C110.274 5.81421 110.365 9.32802 109.825 11.6635C109.797 11.7898 109.818 11.923 109.811 12.0493C109.727 13.1083 109.615 14.1464 108.219 14.2796C106.788 14.4199 106.55 13.3468 106.283 12.3579C105.778 10.5203 105.021 8.96331 102.854 8.70381C100.427 8.41625 99.0033 9.91015 97.839 11.6706C96.5345 13.6274 95.9734 15.8787 95.6157 18.1862C95.4684 19.112 95.0126 20.0097 94.0026 20.1359C93.175 20.2411 92.5438 19.5608 92.2632 18.8244C91.0148 15.528 88.4969 14.4059 85.2216 14.7565C81.9252 15.1072 79.8352 16.8536 79.1689 20.2552C78.734 22.4785 77.5347 22.6608 75.9707 21.0968C75.122 20.2482 74.7152 18.3475 73.1652 19.0559C72.022 19.5749 71.9449 21.216 71.8397 22.5065C71.7485 23.6568 71.6363 24.814 71.6012 25.9642C71.5241 28.7486 70.2897 29.0432 68.1576 27.6545C67.4071 27.1635 66.6216 26.7007 65.794 26.371C62.8412 25.1787 60.8845 26.5744 61.2211 29.6884C61.3404 30.8176 61.8313 31.9117 62.182 33.0059C62.5888 34.2683 64.1318 35.4817 62.7221 36.8423C61.165 38.3432 60.2463 36.4004 59.1171 35.8393C57.2444 34.9065 55.4209 34.612 53.7236 36.0848C52.0684 37.5226 52.4541 39.1918 53.1695 41.0084C53.7727 42.5373 56.3397 43.7928 54.6143 45.6654C53.2537 47.1452 51.5284 45.3147 49.9433 45.1394C49.6908 45.1113 49.4383 45.0552 49.1788 45.0131C47.3623 44.7185 45.4616 44.466 44.1851 46.1142C42.7544 47.9658 43.7784 49.7753 44.7322 51.4796C45.0478 52.0407 45.4546 52.5457 45.8263 53.0647C46.3453 53.7801 47.0887 54.4324 46.5066 55.4563C45.9596 56.4242 45.0478 56.3471 44.1361 56.2489C42.5931 56.0876 40.7976 55.779 40.1453 57.5744C39.5422 59.2296 40.9449 60.457 41.9969 61.5511C42.7824 62.3717 43.8064 62.9749 44.7462 63.6482C45.7352 64.3566 47.5446 64.6371 47.0326 66.2783C46.4365 68.186 44.8023 67.4285 43.4417 67.0778C42.551 66.8464 41.6182 66.6991 41.015 67.6459C40.4259 68.5647 40.9729 69.3853 41.4148 70.1428C42.6632 72.2609 44.6691 73.341 46.9064 74.1405C48.751 74.7998 49.789 76.0552 47.5867 77.2686C46.0227 78.1312 44.2974 78.4469 45.2302 80.7122C46.0578 82.7251 47.5376 83.7281 49.8381 83.1179C50.827 82.8584 51.9632 82.5778 52.5173 83.8263C53.0573 85.0396 52.1315 85.7059 51.339 86.3792C50.6166 86.9894 49.9503 87.7328 50.3851 88.6937C50.8551 89.7317 51.9492 89.9772 53.0082 90.0263C54.2075 90.0824 55.3017 89.7317 56.2275 88.9392C57.0901 88.1957 57.8967 87.0876 59.2012 87.9222C60.2603 88.6095 59.7483 89.7177 59.6992 90.7346C59.5519 93.7505 60.7372 94.4729 63.3813 92.993C64.6017 92.3127 65.9904 90.5453 66.818 90.8118C69.7005 91.7236 153.295 105.407 155.442 105.667C158.023 105.982 158.219 102.342 158.513 99.9435C158.619 99.0878 158.282 98.0989 159.362 97.5869C160.54 97.0328 161.312 97.6851 162.069 98.4285C162.623 98.9686 163.142 99.5437 163.732 100.042C164.412 100.61 165.176 101.522 166.025 101.192C166.874 100.862 166.895 99.705 166.937 98.7932C167.07 95.9317 166.432 93.1684 165.871 90.398C165.604 89.0794 164.629 87.4803 166.467 86.6878C168.213 85.9374 168.529 87.6767 169.104 88.7358C170.023 90.433 171.411 91.1484 173.263 90.7487C175.297 90.3068 176.237 88.869 176.398 86.8702C176.524 85.2991 176.195 83.8122 175.542 82.3745C175.08 81.3575 174.294 80.1722 175.669 79.3095C176.973 78.4959 177.738 79.4638 178.509 80.4177C179.14 81.2032 179.877 81.9817 180.726 82.4937C182.689 83.6649 184.737 83.5247 186.463 82.0518C188.328 80.4527 188.181 78.4328 187.038 76.462C186.526 75.5853 185.859 74.7858 185.186 74.0213C184.429 73.1586 183.314 72.4152 183.868 71.0756C184.436 69.5957 185.733 70.1358 186.869 70.1217Z" fill="#FFBE2D"/>
<path d="M99.7816 71.3491C90.9375 73.7828 82.1285 76.5322 74.9045 86.9824C70.8016 94.5711 68.8448 102.7 68.8588 111.327C68.8588 112.61 68.7536 113.908 68.8728 115.184C70.2825 130.088 75.8443 142.649 89.6681 150.013C98.9541 154.958 108.899 155.351 118.908 152.349C129.498 149.172 136.764 141.709 141.19 132.136C150.013 113.031 150.988 91.941 137.971 76.2656C131.946 69.4344 115.941 66.9025 99.7816 71.3491Z" fill="#FA9691"/>
<path d="M101.241 139.766C105.182 140.348 110.099 137.199 109.776 135.733C109.425 134.148 108.254 134.435 107.034 134.737C103.534 135.249 100.28 134.562 96.9063 133.566C95.8262 133.25 94.7671 132.822 94.3323 134.113C93.8483 135.558 97.1588 139.163 101.241 139.766Z" fill="#002850"/>
<path d="M122.268 101.429C122.113 103.562 120.984 104.775 118.999 104.845C117.015 104.915 115.633 103.807 115.584 101.766C115.535 99.5779 116.685 98.112 119.041 98.1892C121.089 98.2523 122.092 99.5428 122.268 101.429Z" fill="#002850"/>
<path d="M93.9115 101.015C93.5749 102.958 92.607 104.256 90.4679 104.143C88.441 104.038 87.1645 102.986 87.2276 100.868C87.2907 98.7849 88.5672 97.7119 90.6152 97.7469C92.6701 97.789 93.7783 98.9463 93.9115 101.015Z" fill="#002850"/>
</g>
<defs>
<clipPath id="clip0_4141_354">
<rect width="250" height="250" fill="white" transform="translate(0 0.547363)"/>
</clipPath>
</defs>
</svg>
